<svg width="420" height="420" viewBox="0 0 420 420" fill="none" xmlns="http://www.w3.org/2000/svg">
<g clip-path="url(#clip0_1_30)">
<circle cx="183.738" cy="78.798" r="66.4138" transform="rotate(120 183.738 78.798)" fill="#585858" stroke="black"/>
<circle cx="183.939" cy="79.5472" r="32.9569" transform="rotate(120 183.939 79.5472)" fill="#161616" stroke="black"/>
<path d="M17.6493 344.534C32.8209 324.16 104.576 318.089 212.632 6.81447C300.935 47.6631 422.435 175.444 353.876 294.192C316.843 358.335 259.193 379.192 183.784 334.746C139.036 403.221 66.4896 425.332 17.6493 344.534Z" fill="#2070E8"/>
<ellipse cx="82.1491" cy="373.448" rx="11.9375" ry="23.9099" transform="rotate(102.043 82.1491 373.448)" fill="white"/>
<path d="M199.947 304.119C220.608 262.848 235.794 198.151 237.662 130.197C295.655 138.347 336.748 205.62 327.468 251.079C316.513 304.74 260.642 345.676 199.947 304.119Z" fill="#70A2ED"/>
<circle cx="183.738" cy="78.798" r="66.9138" transform="rotate(120 183.738 78.798)" fill="#585858"/>
<circle cx="183.42" cy="78.8927" r="30" transform="rotate(120 183.42 78.8927)" fill="#2D2D2D"/>
<circle cx="79.5283" cy="259.295" r="66.9138" transform="rotate(120 79.5283 259.295)" fill="#585858"/>
<circle cx="79.4199" cy="259.026" r="30" transform="rotate(120 79.4199 259.026)" fill="#2D2D2D"/>
<ellipse cx="330.506" cy="334.992" rx="31.263" ry="21.9389" transform="rotate(129.323 330.506 334.992)" fill="#2070E8"/>
<ellipse cx="333.169" cy="324.669" rx="24.4428" ry="20.3935" transform="rotate(129.323 333.169 324.669)" fill="#FC4A4A"/>
<path d="M311.659 407.622L324.759 371.805L324.276 411.504L311.659 407.622Z" fill="#FC4A4A"/>
<path d="M378.406 382.725L357.72 353.453L386.707 373.624L378.406 382.725Z" fill="#FC4A4A"/>
<path d="M406.139 323.95L369.318 320.579L400.977 313.473L406.139 323.95Z" fill="#FC4A4A"/>
</g>
<defs>
<clipPath id="clip0_1_30">
<rect width="420" height="420" fill="white"/>
</clipPath>
</defs>
</svg>
